<svg width="86" height="17" viewBox="0 0 86 17" fill="none" xmlns="http://www.w3.org/2000/svg">
<path d="M23.027 12L20.189 7.48805L22.859 3.12005H25.571L22.721 7.77605L22.769 7.11605L25.829 12H23.027ZM17.765 12V3.12005H20.369V12H17.765ZM20.021 8.61005V6.33005H21.173V8.61005H20.021ZM26.1205 12V3.12005H32.8525V5.17205H28.6885V9.94805H32.9125V12H26.1205ZM27.6385 8.49605V6.44405H32.2225V8.49605H27.6385ZM35.6158 12V7.32605L36.1318 9.22205L32.4298 3.12005H35.1658L37.3258 6.77405H36.6298L38.7658 3.12005H41.2978L37.7038 9.22205L38.2198 7.36205V12H35.6158ZM46.3045 12.12C45.0925 12.12 44.0845 11.952 43.2805 11.616C42.4765 11.28 41.8745 10.778 41.4745 10.11C41.0785 9.43805 40.8805 8.59605 40.8805 7.58405C40.8805 6.60005 41.0845 5.76805 41.4925 5.08805C41.9045 4.40405 42.5165 3.88605 43.3285 3.53405C44.1445 3.17805 45.1605 3.00005 46.3765 3.00005C46.7285 3.00005 47.0725 3.01605 47.4085 3.04805C47.7485 3.08005 48.0745 3.13205 48.3865 3.20405V5.31605C48.1065 5.25605 47.8205 5.21005 47.5285 5.17805C47.2365 5.14605 46.9345 5.13005 46.6225 5.13005C45.8905 5.13005 45.3025 5.21605 44.8585 5.38805C44.4185 5.56005 44.0965 5.83005 43.8925 6.19805C43.6925 6.56605 43.5925 7.04205 43.5925 7.62605C43.5925 8.16605 43.6825 8.61205 43.8625 8.96405C44.0465 9.31605 44.3225 9.57805 44.6905 9.75005C45.0625 9.92205 45.5285 10.008 46.0885 10.008C46.3045 10.008 46.5285 10 46.7605 9.98405C46.9925 9.96405 47.2025 9.94205 47.3905 9.91805L46.2625 10.866V7.68005H48.6745V11.91C48.2865 11.97 47.8905 12.02 47.4865 12.06C47.0865 12.1 46.6925 12.12 46.3045 12.12ZM49.9916 12V3.35405C50.2876 3.28605 50.6056 3.22605 50.9456 3.17405C51.2896 3.11805 51.6396 3.07605 51.9956 3.04805C52.3516 3.01605 52.6996 3.00005 53.0396 3.00005C54.3876 3.00005 55.4076 3.24405 56.0996 3.73205C56.7916 4.22005 57.1376 4.97805 57.1376 6.00605C57.1376 6.66605 56.9776 7.22005 56.6576 7.66805C56.3376 8.11205 55.8896 8.44805 55.3136 8.67605C54.7376 8.90405 54.0636 9.01805 53.2916 9.01805C53.1636 9.01805 53.0396 9.01605 52.9196 9.01205C52.7996 9.00405 52.6756 8.99805 52.5476 8.99405V12H49.9916ZM55.0916 12L52.4216 7.94405H55.1756L57.9056 12H55.0916ZM53.3516 7.11605C53.7916 7.11605 54.1276 7.03205 54.3596 6.86405C54.5916 6.69605 54.7076 6.41005 54.7076 6.00605C54.7076 5.74605 54.6556 5.53405 54.5516 5.37005C54.4476 5.20205 54.2936 5.07805 54.0896 4.99805C53.8856 4.91805 53.6356 4.87805 53.3396 4.87805C53.1956 4.87805 53.0556 4.88405 52.9196 4.89605C52.7876 4.90805 52.6636 4.92605 52.5476 4.95005V7.06805C52.6356 7.07605 52.7236 7.08405 52.8116 7.09205C52.8996 7.10005 52.9876 7.10605 53.0756 7.11005C53.1676 7.11405 53.2596 7.11605 53.3516 7.11605ZM62.3789 12.12C61.4669 12.12 60.6729 11.95 59.9969 11.61C59.3209 11.266 58.7949 10.756 58.4189 10.08C58.0469 9.40405 57.8609 8.56405 57.8609 7.56005C57.8609 6.55205 58.0469 5.71005 58.4189 5.03405C58.7909 4.35805 59.3149 3.85005 59.9909 3.51005C60.6669 3.17005 61.4629 3.00005 62.3789 3.00005C63.2949 3.00005 64.0909 3.17205 64.7669 3.51605C65.4429 3.85605 65.9669 4.36405 66.3389 5.04005C66.7109 5.71605 66.8969 6.55605 66.8969 7.56005C66.8969 8.56005 66.7109 9.39805 66.3389 10.074C65.9669 10.75 65.4429 11.26 64.7669 11.604C64.0909 11.948 63.2949 12.12 62.3789 12.12ZM62.3789 10.044C62.7789 10.044 63.1169 9.95805 63.3929 9.78605C63.6689 9.61405 63.8769 9.35005 64.0169 8.99405C64.1609 8.63405 64.2329 8.17205 64.2329 7.60805C64.2329 7.01205 64.1609 6.52805 64.0169 6.15605C63.8729 5.78405 63.6629 5.51205 63.3869 5.34005C63.1109 5.16405 62.7749 5.07605 62.3789 5.07605C61.9869 5.07605 61.6529 5.16005 61.3769 5.32805C61.1009 5.49605 60.8889 5.76005 60.7409 6.12005C60.5969 6.47605 60.5249 6.94005 60.5249 7.51205C60.5249 8.11205 60.5969 8.59805 60.7409 8.97005C60.8849 9.34205 61.0929 9.61405 61.3649 9.78605C61.6409 9.95805 61.9789 10.044 62.3789 10.044ZM71.9821 12.12C71.0461 12.12 70.2801 11.972 69.6841 11.676C69.0881 11.38 68.6461 10.934 68.3581 10.338C68.0741 9.74205 67.9321 8.99805 67.9321 8.10605V3.12005H70.5361V8.35205C70.5361 8.94405 70.6601 9.36805 70.9081 9.62405C71.1561 9.88005 71.5141 10.008 71.9821 10.008C72.4501 10.008 72.8061 9.88005 73.0501 9.62405C73.2981 9.36805 73.4221 8.94405 73.4221 8.35205V3.12005H75.9781V8.10605C75.9781 8.99805 75.8381 9.74205 75.5581 10.338C75.2781 10.934 74.8421 11.38 74.2501 11.676C73.6621 11.972 72.9061 12.12 71.9821 12.12ZM77.2494 12V3.30005C77.7014 3.20805 78.1714 3.13605 78.6594 3.08405C79.1514 3.02805 79.6694 3.00005 80.2134 3.00005C81.6334 3.00005 82.6954 3.26605 83.3994 3.79805C84.1074 4.33005 84.4614 5.17405 84.4614 6.33005C84.4614 7.42605 84.1234 8.25405 83.4474 8.81405C82.7714 9.37405 81.7914 9.65405 80.5074 9.65405C80.3914 9.65405 80.2794 9.65205 80.1714 9.64805C80.0674 9.64405 79.9614 9.63805 79.8534 9.63005V12H77.2494ZM80.5314 7.73405C81.0114 7.73405 81.3674 7.63205 81.5994 7.42805C81.8314 7.22005 81.9474 6.85805 81.9474 6.34205C81.9474 5.83805 81.8274 5.47605 81.5874 5.25605C81.3514 5.03205 80.9774 4.92005 80.4654 4.92005C80.3414 4.92005 80.2334 4.92405 80.1414 4.93205C80.0494 4.93605 79.9534 4.94805 79.8534 4.96805V7.69205C79.9694 7.70405 80.0774 7.71405 80.1774 7.72205C80.2814 7.73005 80.3994 7.73405 80.5314 7.73405Z" fill="#212121"/>
<path d="M7.83256 1.99245L13.9017 12.5046H1.76338L7.83256 1.99245Z" fill="#212121"/>
<path d="M5.03033 4.03507L13.7431 9.0654L5.03033 14.0957L5.03033 4.03507Z" fill="white"/>
</svg>
